<svg width="71" height="64" viewBox="0 0 71 64" fill="none" xmlns="http://www.w3.org/2000/svg">
<g clip-path="url(#clip0_1_37)">
<path d="M35.6569 38.7725C39.3292 38.7725 42.3062 35.7403 42.3062 32C42.3062 28.2597 39.3292 25.2275 35.6569 25.2275C31.9846 25.2275 29.0075 28.2597 29.0075 32C29.0075 35.7403 31.9846 38.7725 35.6569 38.7725Z" fill="#087EA4"/>
<path d="M35.6569 47.2381C54.0186 47.2381 68.9037 40.4158 68.9037 32C68.9037 23.5842 54.0186 16.7619 35.6569 16.7619C17.2952 16.7619 2.41014 23.5842 2.41014 32C2.41014 40.4158 17.2952 47.2381 35.6569 47.2381Z" stroke="#087EA4" stroke-width="3"/>
<path d="M22.7003 39.619C31.8811 55.8152 45.1245 65.5336 52.2803 61.3257C59.436 57.1178 57.7944 40.5771 48.6135 24.3809C39.4327 8.1848 26.1893 -1.53361 19.0335 2.67427C11.8778 6.88215 13.5194 23.4229 22.7003 39.619Z" stroke="#087EA4" stroke-width="3"/>
<path d="M22.7003 24.3809C13.5194 40.5771 11.8778 57.1178 19.0335 61.3257C26.1893 65.5336 39.4327 55.8152 48.6135 39.619C57.7944 23.4229 59.436 6.88216 52.2803 2.67427C45.1245 -1.53361 31.8811 8.1848 22.7003 24.3809Z" stroke="#087EA4" stroke-width="3"/>
</g>
<defs>
<clipPath id="clip0_1_37">
<rect width="69.8182" height="64" fill="white" transform="translate(0.747803)"/>
</clipPath>
</defs>
</svg>
